# AST/ASF file generated using VICON BodyLanguage
# -----------------------------------------------
:version 1.10
:name VICON
:units
  mass 1.0
  length 0.45
  angle deg
:documentation
   .ast/.asf automatically generated from VICON data using
   VICON BodyBuilder and BodyLanguage model FoxedUp or BRILLIANT.MOD
:root
   order TX TY TZ RX RY RZ
   axis XYZ
   position 0 0 0  
   orientation 0 0 0 
:bonedata
  begin
     id 1 
     name lhipjoint
     direction 0.577973 -0.728611 0.367523 
     length 2.48544 
     axis 0 0 0  XYZ
  end
  begin
     id 2 
     name lfemur
     direction 0.34202 -0.939693 0  
     length 7.1921  
     axis 0 0 20  XYZ
    dof rx ry rz
    limits (-160.0 20.0)
           (-70.0 70.0)
           (-60.0 70.0)
  end
  begin
     id 3 
     name ltibia
     direction 0.34202 -0.939693 0   
     length 7.71059   
     axis 0 0 20   XYZ
    dof rx
    limits (-10.0 170.0)
  end
  begin
     id 4 
     name lfoot
     direction 0.089538 -0.246004 0.965124   
     length 2.19909   
     axis -90 7.62852e-016 20   XYZ
    dof rx rz
    limits (-45.0 90.0)
           (-70.0 20.0)
  end
  begin
     id 5 
     name ltoes
     direction 1.53544e-011 -4.21829e-011 1   
     length 1.10116   
     axis -90 7.62852e-016 20   XYZ
    dof rx
    limits (-90.0 20.0)
  end
  begin
     id 6 
     name rhipjoint
     direction -0.554414 -0.743062 0.374812   
     length 2.4371  
     axis 0 0 0  XYZ 
  end
  begin
     id 7 
     name rfemur
     direction -0.34202 -0.939693 0   
     length 7.47254   
     axis 0 0 -20   XYZ
    dof rx ry rz
    limits (-160.0 20.0)
           (-70.0 70.0)
           (-70.0 60.0)
  end
  begin
     id 8 
     name rtibia
     direction -0.34202 -0.939693 0   
     length 7.65855   
     axis 0 0 -20   XYZ
    dof rx
    limits (-10.0 170.0)
 end
 begin
     id 9 
     name rfoot
     direction -0.133779 -0.367555 0.92033   
     length 2.43006  
     axis -90 -7.62852e-016 -20   XYZ
    dof rx rz
    limits (-45.0 90.0)
           (-20.0 70.0)
  end
  begin
     id 10 
     name rtoes
     direction -1.53563e-011 -4.21889e-011 1   
     length 1.19625   
     axis -90 -7.62852e-016 -20   XYZ
    dof rx
    limits (-90.0 20.0)
  end
  begin
     id 11 
     name lowerback
     direction 0.0249066 0.998043 -0.0573585   
     length 2.08485   
     axis 0 0 0   XYZ
    dof rx ry rz
    limits (-20.0 45.0)
           (-30.0 30.0)
           (-30.0 30.0)
  end
  begin
     id 12 
     name upperback
     direction 0.0237884 0.999673 0.00943178   
     length 2.08515   
     axis 0 0 0   XYZ
    dof rx ry rz
    limits (-20.0 45.0)
           (-30.0 30.0)
           (-30.0 30.0)
  end
  begin
     id 13 
     name thorax
     direction 0.0106671 0.999301 0.0358174   
     length 2.09037   
     axis 0 0 0   XYZ
    dof rx ry rz
    limits (-20.0 45.0)
           (-30.0 30.0)
           (-30.0 30.0)
  end
  begin
     id 14 
     name lowerneck
     direction -0.0580016 0.987052 0.149546   
     length 1.84454   
     axis 0 0 0   XYZ
    dof rx ry rz
    limits (-20.0 45.0)
           (-30.0 30.0)
           (-30.0 30.0)
  end
  begin
     id 15 
     name upperneck
     direction 0.079456 0.981963 -0.171567   
     length 1.88141   
     axis 0 0 0   XYZ
    dof rx ry rz
    limits (-20.0 45.0)
           (-30.0 30.0)
           (-30.0 30.0)
  end
  begin
     id 16
     name head
     direction 0.0262167 0.9967 -0.0768276  
     length 1.89541  
     axis 0 0 0   XYZ
    dof rx ry rz
    limits (-20.0 45.0)
           (-30.0 30.0)
           (-30.0 30.0)
  end
  begin
     id 17 
     name lclavicle
     direction 0.946135 0.322134 -0.0325326  
     length 3.949  
     axis 0 0 0   XYZ
    dof ry rz
    limits (-20.0 10.0)
           (0.0 20.0)
  end
  begin
     id 18 
     name lhumerus
     direction 1 -4.48964e-011 1.94005e-028   
     length 5.10995   
     axis 180 -30 -90   XYZ
    dof rx ry rz
    limits (-60.0 90.0)
           (-90.0 90.0)
           (-90.0 90.0)
  end
  begin
     id 19
     name lradius
     direction 1 -4.48976e-011 2.87852e-027   
     length 3.21207   
     axis 180 -30 -90   XYZ
    dof rx
    limits (-10.0 170.0)
  end
  begin
     id 20
     name lwrist
     direction 1 -4.48963e-011 1.9975e-027   
     length 1.60604   
     axis 2.96054e-016 90 90   XYZ
    dof ry
    limits (-180.0 0.0)
 end
  begin
     id 21 
     name lhand
     direction 1 -4.48919e-011 4.00227e-027   
     length 0.63349   
     axis -2.5488e-015 90 90   XYZ
    dof rx rz
    limits (-90.0 90.0)
           (-45.0 45.0)
  end
  begin
     id 22 
     name lfingers
     direction 1 -4.49037e-011 7.9652e-027   
     length 0.510736   
     axis -5.0975e-015 90 90   XYZ
    dof rx
    limits (0.0 90.0)
  end
  begin
     id 23
     name lthumb
     direction 0.707107 -6.34922e-011 0.707107   
     length 0.733318   
     axis -90 45 -4.48553e-014   XYZ
    dof rx rz
    limits (-45.0 45.0)
           (-45.0 45.0)
  end
  begin
     id 24 
     name rclavicle
     direction -0.940085 0.328911 -0.0897654   
     length 3.93848  
     axis 0 0 0   XYZ 
    dof ry rz
    limits (-10.0 20.0)
           (-20.0 0.0)
  end
  begin
     id 25 
     name rhumerus
     direction -1 -4.48958e-011 3.02044e-027  
     length 5.25109   
     axis 180 30 90   XYZ
    dof rx ry rz
    limits (-90.0 60.0)
           (-90.0 90.0)
           (-90.0 90.0)
  end
  begin
     id 26 
     name rradius
     direction -1 -4.4897e-011 9.78352e-028   
     length 3.28364   
     axis 180 30 90   XYZ
    dof rx
    limits (-10.0 170.0)
  end
  begin
     id 27 
     name rwrist
     direction -1 -4.48943e-011 1.99918e-027   
     length 1.64182   
     axis 2.96054e-016 -90 -90   XYZ
    dof ry
    limits (-180.0 0.0)
  end
  begin
     id 28
     name rhand
     direction -1 -4.49024e-011 3.98478e-027   
     length 0.599745   
     axis -2.5488e-015 -90 -90   XYZ
    dof rx rz
    limits (-90.0 90.0)
           (-45.0 45.0)
  end
  begin
     id 29
     name rfingers
     direction -1 -4.48914e-011 8.00621e-027   
     length 0.48353   
     axis -5.0975e-015 -90 -90   XYZ
    dof rx
    limits (0.0 90.0)
  end
  begin
     id 30
     name rthumb
     direction -0.707107 -6.34992e-011 0.707107   
     length 0.694255   
     axis -90 -45 4.48553e-014   XYZ
    dof rx rz
    limits (-45.0 45.0)
           (-45.0 45.0)
  end
:hierarchy
  begin
    root lhipjoint rhipjoint lowerback
    lhipjoint lfemur
    lfemur ltibia
    ltibia lfoot
    lfoot ltoes
    rhipjoint rfemur
    rfemur rtibia
    rtibia rfoot
    rfoot rtoes
    lowerback upperback
    upperback thorax
    thorax lowerneck lclavicle rclavicle
    lowerneck upperneck
    upperneck head
    lclavicle lhumerus
    lhumerus lradius
    lradius lwrist
    lwrist lhand lthumb
    lhand lfingers
    rclavicle rhumerus
    rhumerus rradius
    rradius rwrist
    rwrist rhand rthumb
    rhand rfingers
  end

#!OML:ASF E:\CV Data\Top Level 1\Subject 1\Session 1\player.ASF
:FULLY-SPECIFIED
:DEGREES
69
root 5.72206 17.9896 -20.9495 10.981 -0.70373 -5.62557
lowerback 7.07233 0.0327375 4.95979
upperback 2.2592 0.458697 3.59477
thorax -1.61995 0.222538 0.888447
lowerneck -15.8197 -8.53527 -12.971
upperneck 35.8048 -10.0693 3.96789
head 16.4673 -5.40897 2.04549
rclavicle 3.57812e-015 -2.06736e-014
rhumerus -3.46324 17.1759 -80.4344
rradius 72.1539
rwrist -46.6239
rhand 3.69402 6.10216
rfingers 7.12502
rthumb 29.1235 -21.6403
lclavicle 3.57812e-015 -2.06736e-014
lhumerus -1.73381 -16.7089 87.7891
lradius 72.3282
lwrist 39.3499
lhand -1.35892 16.4986
lfingers 7.12502
lthumb 24.2881 44.98
rfemur -19.6678 0.480395 22.2595
rtibia 22.0383
rfoot -10.2582 -11.3436
rtoes 2.13166
lfemur -17.2281 0.679556 -9.25853
ltibia 16.8355
lfoot -4.8526 3.05895
ltoes -7.98144
70
root 5.7005 17.9891 -20.9564 11.0893 -0.540818 -5.6263
lowerback 7.24829 0.0331648 5.08368
upperback 2.31918 0.478633 3.61514
thorax -1.65416 0.232459 0.838566
lowerneck -15.9313 -8.44881 -12.8558
upperneck 35.925 -9.92881 3.8842
head 16.5235 -5.34453 2.01624
rclavicle -6.75868e-015 -2.46493e-014
rhumerus -3.30059 16.3683 -80.5678
rradius 73.4561
rwrist -48.7769
rhand 3.06756 6.58918
rfingers 7.12502
rthumb 28.5251 -21.2553
lclavicle -6.75868e-015 -2.46493e-014
lhumerus -1.55036 -15.6044 88.0363
lradius 73.5916
lwrist 41.2838
lhand -1.28321 15.1491
lfingers 7.12502
lthumb 24.3607 43.6207
rfemur -19.8711 0.415981 22.3524
rtibia 22.1706
rfoot -10.2978 -11.4076
rtoes 2.15455
lfemur -17.4446 0.655307 -9.16808
ltibia 16.8721
lfoot -4.80221 2.96888
ltoes -8.06858
71
root 5.67858 17.9886 -20.9626 11.2031 -0.380375 -5.62948
lowerback 7.42556 0.00541702 5.1829
upperback 2.34353 0.462775 3.66215
thorax -1.7272 0.223502 0.8331
lowerneck -15.9103 -8.34402 -12.8368
upperneck 36.0063 -9.75824 3.83176
head 16.5351 -5.27938 2.02748
rclavicle -1.39149e-015 1.59028e-014
rhumerus -3.23212 15.622 -80.7644
rradius 74.8286
rwrist -50.8302
rhand 2.2883 7.11785
rfingers 7.12502
rthumb 27.7803 -20.8492
lclavicle -1.39149e-015 1.59028e-014
lhumerus -1.50544 -14.3106 88.3769
lradius 75.0083
lwrist 43.1901
lhand -1.45325 13.9895
lfingers 7.12502
lthumb 24.1977 42.483
rfemur -20.0776 0.356849 22.4488
rtibia 22.3007
rfoot -10.3366 -11.4719
rtoes 2.17844
lfemur -17.6644 0.63681 -9.0749
ltibia 16.9072
lfoot -4.74972 2.87906
ltoes -8.16662
72
root 5.65631 17.9882 -20.9682 11.321 -0.225046 -5.63895
lowerback 7.62936 -0.0379476 5.27013
upperback 2.33079 0.430665 3.72391
thorax -1.85405 0.205091 0.851228
lowerneck -15.8085 -8.23117 -12.8707
upperneck 36.0728 -9.57541 3.79514
head 16.5239 -5.21605 2.05963
rclavicle 2.18663e-015 1.98785e-014
rhumerus -3.25206 14.8962 -81.0272
rradius 76.2477
rwrist -52.6281
rhand 1.29469 7.70848
rfingers 7.12502
rthumb 26.8299 -20.4081
lclavicle 2.18663e-015 1.98785e-014
lhumerus -1.58411 -12.8879 88.7916
lradius 76.5693
lwrist 44.9697
lhand -1.87606 12.9795
lfingers 7.12502
lthumb 23.7923 41.5264
rfemur -20.2852 0.307306 22.5523
rtibia 22.4275
rfoot -10.3748 -11.5387
rtoes 2.21355
lfemur -17.8849 0.617701 -8.97355
ltibia 16.9435
lfoot -4.69628 2.79861
ltoes -8.26925
73
root 5.63366 17.9877 -20.9731 11.4346 -0.0857248 -5.66003
lowerback 7.8258 -0.0761801 5.36022
upperback 2.334 0.404506 3.78514
thorax -1.96009 0.190093 0.866963
lowerneck -15.7262 -8.12793 -12.9005
upperneck 36.1224 -9.4081 3.76646
head 16.5107 -5.15679 2.09039
rclavicle 0 -1.19271e-014
rhumerus -3.27468 14.1354 -81.3353
rradius 77.6818
rwrist -54.0318
rhand 0.0308745 8.39782
rfingers 7.12502
rthumb 25.6199 -19.8987
lclavicle 0 -1.19271e-014
lhumerus -1.67192 -11.4084 89.2403
lradius 78.2323
lwrist 46.4831
lhand -2.50182 12.1071
lfingers 7.12502
lthumb 23.192 40.7308
rfemur -20.4839 0.279352 22.6673
rtibia 22.5484
rfoot -10.4091 -11.6089
rtoes 2.25599
lfemur -18.0945 0.604865 -8.8587
ltibia 16.9838
lfoot -4.64633 2.72935
ltoes -8.36924
74
root 5.61078 17.9872 -20.9772 11.5484 0.0412229 -5.69197
lowerback 8.01176 -0.1192 5.45287
upperback 2.33845 0.371855 3.84936
thorax -2.05919 0.171942 0.885253
lowerneck -15.6172 -8.02404 -12.9437
upperneck 36.1491 -9.24278 3.74881
head 16.4811 -5.09899 2.12846
rclavicle -8.15017e-015 1.66979e-014
rhumerus -3.32415 13.3945 -81.6901
rradius 79.111
rwrist -54.9761
rhand -1.59619 9.16167
rfingers 7.12502
rthumb 24.0606 -19.35
lclavicle -8.15017e-015 1.66979e-014
lhumerus -1.8091 -9.87234 89.7191
lradius 79.9776
lwrist 47.6008
lhand -3.31951 11.2994
lfingers 7.12502
lthumb 22.4073 40.0197
rfemur -20.678 0.263436 22.7941
rtibia 22.6618
rfoot -10.4396 -11.6775
rtoes 2.31141
lfemur -18.2998 0.600901 -8.7317
ltibia 17.0296
lfoot -4.60286 2.66535
ltoes -8.46554
75
root 5.58788 17.9866 -20.9807 11.6586 0.164294 -5.7326
lowerback 8.17487 -0.136859 5.57853
upperback 2.38217 0.370658 3.8842
thorax -2.10351 0.170756 0.851702
lowerneck -15.604 -7.94872 -12.9012
upperneck 36.1772 -9.13237 3.72451
head 16.4742 -5.05077 2.13476
rclavicle 6.75868e-015 4.69132e-014
rhumerus -3.34462 12.5539 -82.0841
rradius 80.5105
rwrist -55.4338
rhand -3.62841 9.94282
rfingers 7.12502
rthumb 22.1107 -18.8129
lclavicle 6.75868e-015 4.69132e-014
lhumerus -1.91572 -8.42787 90.1882
lradius 81.7736
lwrist 48.232
lhand -4.25858 10.6024
lfingers 7.12502
lthumb 21.5056 39.4285
rfemur -20.8632 0.253702 22.9309
rtibia 22.7674
rfoot -10.4674 -11.7476
rtoes 2.36912
lfemur -18.5002 0.596743 -8.59406
ltibia 17.0822
lfoot -4.56705 2.60515
ltoes -8.56736
76
root 5.56481 17.9858 -20.9836 11.7606 0.266585 -5.78172
lowerback 8.3371 -0.155785 5.70422
upperback 2.4219 0.368386 3.91829
thorax -2.15146 0.168898 0.817522
lowerneck -15.5432 -7.86703 -12.867
upperneck 36.1893 -9.01953 3.70896
head 16.4485 -5.00232 2.14828
rclavicle -4.57205e-015 -3.57812e-014
rhumerus -3.41017 11.7462 -82.5176
rradius 81.8683
rwrist -55.4663
rhand -6.03583 10.6725
rfingers 7.12502
rthumb 19.7979 -18.3392
lclavicle -4.57205e-015 -3.57812e-014
lhumerus -2.08915 -6.97372 90.6719
lradius 83.5899
lwrist 48.3347
lhand -5.28387 10.0518
lfingers 7.12502
lthumb 20.5206 38.9873
rfemur -21.0351 0.254463 23.0764
rtibia 22.8655
rfoot -10.493 -11.8078
rtoes 2.42646
lfemur -18.6856 0.60432 -8.44798
ltibia 17.141
lfoot -4.53758 2.55366
ltoes -8.67475
77
root 5.54199 17.985 -20.986 11.8548 0.366161 -5.83039
lowerback 8.54377 -0.173643 5.81558
upperback 2.4402 0.372412 3.95818
thorax -2.24629 0.169008 0.796929
lowerneck -15.4781 -7.78898 -12.8275
upperneck 36.2185 -8.91008 3.67904
head 16.4298 -4.95682 2.15398
rclavicle 3.97569e-015 -2.22639e-014
rhumerus -3.53313 10.9476 -82.9633
rradius 83.1667
rwrist -55.1438
rhand -8.6953 11.2962
rfingers 7.12502
rthumb 17.2397 -17.9591
lclavicle 3.97569e-015 -2.22639e-014
lhumerus -2.32485 -5.54037 91.1832
lradius 85.3907
lwrist 47.9425
lhand -6.38262 9.629
lfingers 7.12502
lthumb 19.4645 38.6747
rfemur -21.1934 0.252528 23.2215
rtibia 22.9556
rfoot -10.5172 -11.8629
rtoes 2.477
lfemur -18.8657 0.612428 -8.3035
ltibia 17.2085
lfoot -4.5121 2.50331
ltoes -8.79166
78
root 5.51957 17.984 -20.9883 11.9413 0.463456 -5.87803
lowerback 8.75402 -0.172608 5.93599
upperback 2.46923 0.401963 3.98225
thorax -2.3309 0.182029 0.752164
lowerneck -15.4688 -7.72873 -12.724
upperneck 36.27 -8.83338 3.62834
head 16.4336 -4.91789 2.13144
rclavicle 6.16232e-015 1.35174e-014
rhumerus -3.66764 10.054 -83.4158
rradius 84.3993
rwrist -54.589
rhand -11.4297 11.7282
rfingers 7.12502
rthumb 14.6065 -17.7375
lclavicle 6.16232e-015 1.35174e-014
lhumerus -2.55264 -4.20535 91.694
lradius 87.1418
lwrist 47.1771
lhand -7.48623 9.38112
lfingers 7.12502
lthumb 18.4031 38.5306
rfemur -21.3392 0.254971 23.3628
rtibia 23.0385
rfoot -10.5401 -11.9201
rtoes 2.52823
lfemur -19.0427 0.624634 -8.16288
ltibia 17.2849
lfoot -4.48848 2.4512
ltoes -8.90993
79
root 5.49689 17.9832 -20.9901 12.0263 0.53367 -5.92671
lowerback 8.93449 -0.168772 6.04488
upperback 2.51213 0.43092 4.00385
thorax -2.3845 0.195496 0.711134
lowerneck -15.4384 -7.66762 -12.6349
upperneck 36.3083 -8.75863 3.59183
head 16.4278 -4.88006 2.11772
rclavicle -6.36111e-015 -1.59028e-014
rhumerus -3.80947 9.15491 -83.8814
rradius 85.5446
rwrist -53.8671
rhand -14.1553 12.068
rfingers 7.12502
rthumb 11.9794 -17.5692
lclavicle -6.36111e-015 -1.59028e-014
lhumerus -2.78066 -2.89202 92.1789
lradius 88.838
lwrist 46.1963
lhand -8.59722 9.30762
lfingers 7.12502
lthumb 17.3341 38.5546
rfemur -21.4798 0.27785 23.5017
rtibia 23.1147
rfoot -10.5587 -11.9675
rtoes 2.57406
lfemur -19.2119 0.657 -8.02406
ltibia 17.3724
lfoot -4.47021 2.40713
ltoes -8.98895
80
root 5.47428 17.9825 -20.9918 12.111 0.589665 -5.97182
lowerback 9.12951 -0.172137 6.14085
upperback 2.54373 0.451756 4.02582
thorax -2.45817 0.20437 0.678541
lowerneck -15.4455 -7.59257 -12.5345
upperneck 36.3865 -8.65587 3.53612
head 16.4466 -4.83186 2.09817
rclavicle 5.96354e-016 3.97569e-015
rhumerus -3.99289 8.26763 -84.3563
rradius 86.5967
rwrist -53.0088
rhand -16.7486 12.3468
rfingers 7.12502
rthumb 9.47787 -17.4201
lclavicle 5.96354e-016 3.97569e-015
lhumerus -3.0446 -1.60271 92.6257
lradius 90.4816
lwrist 45.1863
lhand -9.72343 9.39174
lfingers 7.12502
lthumb 16.25 38.7308
rfemur -21.6174 0.312739 23.6329
rtibia 23.1858
rfoot -10.5741 -12.0096
rtoes 2.62165
lfemur -19.3828 0.699873 -7.89268
ltibia 17.4727
lfoot -4.45368 2.36962
ltoes -9.06057
81
root 5.45146 17.9818 -20.993 12.1969 0.621476 -6.01548
lowerback 9.31233 -0.169959 6.23397
upperback 2.58509 0.477805 4.03562
thorax -2.51451 0.216272 0.634187
lowerneck -15.451 -7.52711 -12.4474
upperneck 36.4619 -8.57215 3.50305
head 16.4685 -4.79027 2.08691
rclavicle 5.56597e-015 -4.29375e-014
rhumerus -4.18753 7.36018 -84.8369
rradius 87.5435
rwrist -52.0104
rhand -19.141 12.6024
rfingers 7.12502
rthumb 7.16904 -17.2561
lclavicle 5.56597e-015 -4.29375e-014
lhumerus -3.30732 -0.383869 93.0076
lradius 92.0719
lwrist 44.2873
lhand -10.9103 9.62051
lfingers 7.12502
lthumb 15.1069 39.0492
rfemur -21.7539 0.367681 23.7587
rtibia 23.2535
rfoot -10.5866 -12.0453
rtoes 2.66152
lfemur -19.552 0.764147 -7.76744
ltibia 17.5854
lfoot -4.44142 2.33805
ltoes -9.12456
82
root 5.42855 17.9813 -20.994 12.2876 0.636487 -6.05317
lowerback 9.45968 -0.177494 6.31235
upperback 2.63208 0.486101 4.04468
thorax -2.54597 0.219997 0.59915
lowerneck -15.4055 -7.45649 -12.4113
upperneck 36.5175 -8.48341 3.50341
head 16.4731 -4.74991 2.10134
rclavicle -3.97569e-016 -3.49861e-014
rhumerus -4.40635 6.50398 -85.312
rradius 88.3707
rwrist -50.8401
rhand -21.3354 12.8737
rfingers 7.12502
rthumb 5.05053 -17.0461
lclavicle -3.97569e-016 -3.49861e-014
lhumerus -3.59902 0.794085 93.3119
lradius 93.6212
lwrist 43.6053
lhand -12.1935 9.98249
lfingers 7.12502
lthumb 13.8705 39.5
rfemur -21.8941 0.432051 23.8758
rtibia 23.3203
rfoot -10.598 -12.0741
rtoes 2.70274
lfemur -19.7234 0.843354 -7.65269
ltibia 17.7056
lfoot -4.43022 2.31137
ltoes -9.17976
